<?xml version="1.0" encoding="UTF-8" standalone="no"?>
<!-- Created with Inkscape (http://www.inkscape.org/) -->

<svg
   width="84.999992mm"
   height="85mm"
   viewBox="0 0 84.999993 84.999999"
   version="1.1"
   id="svg1"
   xmlns="http://www.w3.org/2000/svg"
   xmlns:svg="http://www.w3.org/2000/svg">
  <defs
     id="defs1" />
  <g
     id="layer1"
     transform="translate(-10.560344,24.227346)">
    <path
       id="rect1"
       style="fill:#000000;stroke-width:0.187088;paint-order:markers fill stroke"
       d="M 53.060592 -24.227346 L 10.560344 18.199005 L 14.102247 21.734706 L 23.060356 12.7921 L 23.060356 15.772796 L 23.060356 60.772634 L 28.060568 60.772634 L 43.060169 60.772634 L 45.560275 60.772634 L 45.560275 35.772609 L 60.560393 35.772609 L 60.560393 60.772634 L 65.560088 60.772634 L 83.060311 60.772634 L 83.060311 55.772422 L 83.060311 12.7921 L 92.018421 21.734706 L 95.560324 18.199005 L 53.060592 -24.227346 z M 53.060592 -17.155943 L 81.037179 10.772585 L 28.060568 10.772585 L 25.083489 10.772585 L 53.060592 -17.155943 z M 28.060568 15.772796 L 78.0601 15.772796 L 78.0601 55.772422 L 65.560088 55.772422 L 65.560088 35.772609 L 65.560088 30.772398 L 40.56058 30.772398 L 40.56058 35.772609 L 40.56058 55.772422 L 28.060568 55.772422 L 28.060568 15.772796 z " />
  </g>
</svg>
