<?xml version="1.0" encoding="UTF-8" standalone="no"?>
<!-- Created with Inkscape (http://www.inkscape.org/) -->

<svg
   width="68.487137mm"
   height="68.487289mm"
   viewBox="0 0 68.487137 68.487289"
   version="1.1"
   id="svg1"
   xmlns="http://www.w3.org/2000/svg"
   xmlns:svg="http://www.w3.org/2000/svg">
  <defs
     id="defs1" />
  <g
     id="layer1"
     transform="translate(-23.060344,-10.772654)">
    <path
       id="rect1"
       style="fill:#000000;stroke-width:0.185208;paint-order:markers fill stroke"
       d="m 66.547095,10.772654 a 25,25 0 0 0 -17.677474,7.32255 25,25 0 0 0 -2.300635,32.706014 l -23.508642,23.508643 4.949568,4.950085 23.508643,-23.508643 a 25,25 0 0 0 32.706531,-2.300634 25,25 0 0 0 0,-35.355465 25,25 0 0 0 -17.677991,-7.32255 z m 0,5.000211 a 20,20 0 0 1 14.142289,5.858041 20,20 0 0 1 0,28.284062 20,20 0 0 1 -28.284062,0 20,20 0 0 1 1e-6,-28.284062 20,20 0 0 1 14.141772,-5.858041 z" />
  </g>
</svg>
